<svg xmlns="http://www.w3.org/2000/svg">
  <symbol viewBox="0 0 23 25" id="usability">
    <path d="M2.64463 19.087H12.0228L0.358398 24.2194L2.64463 19.087Z" fill="#FFC100"/>
    <path d="M22.0075 24.2194L12.0228 19.087L7.26367 21.1866L15.0555 24.2194H22.0075Z" fill="black"/>
    <path d="M11.1363 0.282333L15.0089 8.91402L0.358398 24.2178L11.1363 0.282333Z" fill="#04974A"/>
    <path d="M15.0554 24.2209H22.0075L15.0088 8.9171L15.0554 24.2209Z" fill="#05AB54"/>
  </symbol>
  <symbol viewBox="0 0 32 29" id="cart">
    <path d="M0 1H6.2386L9.94568 17.2308M9.94568 17.2308H26.2289L30 4.71872L7.01261 4.39282M9.94568 17.2308C9.94568 17.2308 8.01358 17.2308 8.01358 19.1048C8.00802 19.3569 8.05359 19.6077 8.14755 19.8418C8.24151 20.0759 8.3819 20.2885 8.56028 20.4669C8.73865 20.6453 8.9513 20.7857 9.1854 20.8796C9.4195 20.9736 9.67021 21.0191 9.92241 21.0136H27.4161M13.8855 25.2386C13.8855 26.3732 12.9658 27.2929 11.8312 27.2929C10.6967 27.2929 9.77691 26.3732 9.77691 25.2386C9.77691 24.104 10.6967 23.1843 11.8312 23.1843C12.9658 23.1843 13.8855 24.104 13.8855 25.2386ZM26.1591 25.2386C26.1591 26.3732 25.2393 27.2929 24.1048 27.2929C22.9702 27.2929 22.0504 26.3732 22.0504 25.2386C22.0504 24.104 22.9702 23.1843 24.1048 23.1843C25.2393 23.1843 26.1591 24.104 26.1591 25.2386Z" stroke-width="2"/>
  </symbol>
  <symbol viewBox="0 0 26 27" id="profile">
    <path d="M12.9495 12.1735C16.035 12.1735 18.5363 9.67224 18.5363 6.58676C18.5363 3.50128 16.035 1 12.9495 1C9.86405 1 7.36277 3.50128 7.36277 6.58676C7.36277 9.67224 9.86405 12.1735 12.9495 12.1735Z" stroke-width="2"/>
    <path d="M24.2585 26C24.2585 23.0007 23.067 20.1242 20.9462 18.0034C18.8253 15.8825 15.9489 14.6911 12.9496 14.6911C9.95024 14.6911 7.07377 15.8825 4.95293 18.0034C2.8321 20.1242 1.64063 23.0007 1.64062 26H24.2585Z" stroke-width="2"/>
  </symbol>
  <symbol viewBox="0 0 32 22" id="fav">
    <path d="M0.743862 7.66163C-0.0300548 3.73536 2.83007 0.33429 7.28851 0.0130497C11.2142 -0.267398 13.1602 4.0566 13.5528 4.88265C13.5571 4.8965 13.5663 4.90868 13.5789 4.91736C13.5916 4.92603 13.607 4.93073 13.6229 4.93073C13.6387 4.93073 13.6541 4.92603 13.6668 4.91736C13.6794 4.90868 13.6886 4.8965 13.693 4.88265C15.5156 0.339389 18.8356 0.145625 20.0021 0.0385451C23.1426 -0.267398 27.3543 1.94049 26.5075 7.08544C25.2961 14.2241 13.5415 22.2857 13.5415 22.2857C13.5415 22.2857 2.27487 15.3357 0.743862 7.66163Z" stroke-width="2"/>
  </symbol>
  <symbol viewBox="0 0 26 27" id="search">
    <path d="M16.3819 16.9036L24.7693 26M19.3347 10.1673C19.3347 15.2303 15.2303 19.3347 10.1673 19.3347C5.10436 19.3347 1 15.2303 1 10.1673C1 5.10436 5.10436 1 10.1673 1C15.2303 1 19.3347 5.10436 19.3347 10.1673Z" stroke-width="2"/>
  </symbol>
  <symbol viewBox="0 0 316 230" id="program-1">
    <path fill="none" stroke-linecap="round" stroke-linejoin="round" stroke-width="3" d="M223 148.5c2.714 1.475 4.58-.337 5.921-2.061 2.005-2.576 3.484-5.563 5.205-8.406-1.578-2.63-3.129-4.747-6.611-5.158-3.03-.356-3.66-2.906-3.58-5.877.198-7.494.077-14.998.056-22.498-.005-1.882.108-3.69-.914-5.543-1.376-2.495-1.094-5.116-.216-8 1.219-3.998 1.592-8.276 2.082-12.464.206-1.762.888-2.365 2.553-2.534 1.67-.17 2.224.909 2.467 2.049 1.21 5.658 4.582 7.43 10.051 6.049 1.133-.286 2.755-.589 3.456.957.707 1.558 2.128 1.217 3.007.918 6.187-2.107 12.52-3.28 19.01-4.049 3.35-.397 6.175-3.071 6.361-6.392.38-6.769.713-13.635-2.806-20.014-5.543-10.049-12.196-12.314-22.562-7.52-2.844 1.315-5.785 2.359-8.516 3.982-2.677 1.591-5.65 2.684-8.736 4.108-3.651-9.573-12.095-8.282-19.721-7.905-5.702.281-11.358 1.769-17.001 2.887-4.378.867-8.137 3.036-10.985 6.488-5.068 6.142-11.984 9.337-18.955 12.622-1.457.687-2.718.915-4.063.817-6.222-.454-12.362.545-18.49 1.165-4.415.446-8.046 3.483-11.99 5.424-3.276 1.612-6.282 3.768-9.545 5.412-2.95 1.485-6.556 2.068-6.568 6.543-.001.502-1.236 1.01-1.912 1.497-.488.35-.994.675-1.499 1.002-7.036 4.561-14.804 5.584-23.003 5.067-3.49-.22-6.89.589-8.996 3.934M154.5 147.5c-1.114 2.778-.45 5.673-.461 8.5-.075 18.5-.039 37-.039 55.5 0 6.184 1.219 7.638 7.503 8.474 3.352.446 6.462-.52 9.521-1.92 1.716-.787 2.006-1.887 2.003-3.554-.04-23.167-.049-46.333.024-69.5.005-1.451-.626-2.266-1.563-2.984-3.347-2.568-11.093-2.391-15.023-.075-2.21 1.301-3.14 2.656-1.965 5.059"/>
    <path fill="none" stroke-linecap="round" stroke-linejoin="round" stroke-width="3" d="M218.5 141c.402-10.766-6.024-19.555-8.684-29.45-1.3-4.835-1.43-10.007-3.665-14.765-4.904 1.642-9.776 2.815-11.226 8.696-.32 1.294-1.345 2.746-2.468 3.45-4.448 2.783-3.866 6.53-2.459 10.57 1.78 5.112 1.064 10.297.526 15.501-.603 5.823-1.042 11.663-1.514 17.499-.146 1.813-.08 3.239 2.475 3.606 2.47.355 4.794 1.55 7.046 2.839 3.884 2.224 4.284 3.51 2.519 7.576-1.907 4.392-5.823 6.334-9.599 8.389-1.257.684-3.027.18-3.951-1.411M231.5 133c8.068-3.05 9.48-9.366 8.564-17.008-.254-2.116.878-4.501.313-6.457-1.294-4.481 1.075-5.98 4.63-6.488 6.485-.927 8.71.583 10.076 4.927 2.058 6.543.325 13.052.232 19.523-.109 7.495-.171 15.003-.313 22.503-.078 4.172-2.353 6-7.502 6-5.149 0-7.383-1.83-7.514-6-.141-4.5.496-9.03-.513-13.631L234.5 138.5M175 106c-10.412-.753-20.13.894-29.055 6.92-7.424 5.012-15.63 8.698-23.93 12.116-2.266.934-4.083 2.109-5.098-1.513-.633-2.256-3.08-2.516-4.887-1.93-2.87.93-5.365-.312-8.035-.532-4.66-.384-9.092-1.198-14.098.013-4.307 1.042-9.564.089-14.398-.057-4.825-.145-9.358 1.504-14.499 2.333 0 2.136.105 4.15-.024 6.148-.199 3.069-.014 5.826 3.52 7.014 2.43.817 3.28 3.063 2.357 4.915-1.015 2.034-1.518 5.144-5.365 4.67-3.415-.419-7.184.705-9.06-3.565-.108-.246-1.261-.032-1.928-.032"/>
    <path fill="none" stroke-linecap="round" stroke-linejoin="round" stroke-width="3" d="M95.5 98c-3.47 4.448-8.296 6.109-13.46 4.836-4.243-1.045-8.357-.662-12.539-.865-4.85-.236-8.982 1.299-11.937 5.08-1.897 2.427-4.207 3.17-6.99 4.157-5.113 1.813-9.904 3.61-15.547 4.102-6.85.598-8.96 4.11-5.316 11.587 2.073 4.254 2.687 8.032 2.423 12.61-.475 8.23 4.962 13.459 12.866 13.537 2.771.028 5.838-.131 6.311-3.074.473-2.942.89-6.757-3.311-8.22M188.5 59.5c-3.075 7.48-3.608 15.766-7.41 23.047-.788 1.509-.555 3.619-.565 5.453-.024 4.891-.884 9.774-3.16 13.925-3.536 6.445-3.9 13.239-3.262 20.065 1.197 12.805 3.179 25.525 6.422 38.004.488 1.88 1.308 3.673 1.975 5.506"/>
    <path fill="none" stroke-linecap="round" stroke-linejoin="round" stroke-width="2" d="M202.5 161.5c8.384-5.307 16.813-10.56 23.975-17.526 1.009-.981.804-2.307.068-3.466-3.188-1.274-5.77-.75-8.607 1.408-6.949 5.29-14.847 9.255-21.436 15.084"/>
    <path fill="none" stroke-linecap="round" stroke-linejoin="round" stroke-width="3" d="M155 147c5.667 2.445 11.333 3.19 17 0"/>
    <path fill="none" stroke-linecap="round" stroke-linejoin="round" stroke-width="2" d="M174 182c5-3.333 10.055-6.588 14.976-10.034 2.4-1.681 3.568-4.001 1.4-7.21-3.132-.436-6.646.194-9.873 2.25-2.146 1.366-3.855 3.443-6.503 3.994"/>
    <path fill="none" stroke-linecap="round" stroke-linejoin="round" stroke-width="3" d="M255 109.5c-4.581 2.565-9.256 2.498-14 .5"/>
    <path fill="none" stroke-linecap="round" stroke-linejoin="round" stroke-width="5" d="M49 131.5v10"/>
  </symbol>
  <symbol viewBox="0 0 239 224" id="program-2">
    <path fill="none" stroke-linecap="round" stroke-linejoin="round" stroke-width="2" d="M19.5 122.5c-1.044.854-.467 2.013-.469 3-.04 21.167.025 42.334-.092 63.5-.018 3.139.778 4.622 4.006 5.67 3.26 1.058 6.502 1.18 9.523.65 3.207-.562 5.739-2.15 5.692-6.822-.205-20.33.175-40.665.337-60.998.02-2.333-.067-4.67.023-7 .086-2.221-1.408-3.408-3.043-3.928-4.265-1.355-8.672-1.787-12.966-.045-2.375.964-4.549 2.255-3.011 5.473M223.5 205.5c-6.477 5.558-15.196 5.476-22.542 8.91-3.464 1.618-5.306.258-6.39-4.426-.986-4.26-2.241-6.758-7.51-7.78-8.536-1.657-16.677-5.063-25.544-5.855-5.648-.505-9.363-4.905-12.49-9.366-3.753-5.358-7.388-10.86-12.593-14.894-2.303-1.785-5.538-3.977-7.47 1.015-11.247-7.084-22.786-13.653-33.495-21.557-6.414-4.734-10.168-11.048-11.862-18.57-.756-3.358.103-6.789 1.83-10.013 1.755-3.277 1.704-6.793.633-10.483C83.805 104.694 80.497 97.54 75 91.5"/>
    <path fill="none" stroke-linecap="round" stroke-linejoin="round" stroke-width="2" d="M71.5 58.5c1.002.087 1.556-.81 2.467-1.103C82.544 54.65 86.13 49.3 86.085 40.5c-.01-2.156-1.404-3.345-2.115-4.987-4.269-9.857-1.28-17.41 10.023-19.058 6.083-.887 11.446.97 16.674 3.86-.987 8.972 3.175 18.07-1.8 26.649-1.553 1.217-3.869 1.947-6.446 1.403.7 5.877 1.375 10.73 6.467 14.293 4.78 3.346 6.27 9.262 6.49 14.845.37 9.354 2.253 18.412 4.158 27.488 1.041 4.965.323 10.087 1.805 15.054.535 1.792.973 2.898 2.66 3.452 10.272 3.379 18.173 9.9 24.493 18.505.71.968 1.764 1.928 1.938 3.007 1.254 7.783 8.874 11.793 11.13 18.97.203.645 1.256 1.041 1.94 1.516 10.26 7.109 20.234 14.638 30.998 21.003"/>
    <path fill="none" stroke-linecap="round" stroke-linejoin="round" stroke-width="2" d="M154.5 166.5c6.488 8.016 15.51 12.669 24.024 17.96 3.857 2.398 8.103 4.172 11.944 6.591 4.797 3.021 10.257 3.685 15.552 4.269 4.456.491 8.903 1.771 13.483 1.203 1.775-.22 3.57.32 5.065-1.467 1.251-1.496 3.374-2.468 5.117-.98 1.67 1.424.927 3.505.383 5.443-.283 1.011-.399 1.816-1.568 1.981M68.5 61.5c-6.779 11.074-11.175 22.946-11.972 36.002-.062 1.014-.282 1.733-.998 2.526-5.506 6.101-6.602 13.717-6.995 21.474-.337 6.658-.368 13.331-.535 19.998M144 76.5c1.135 6.475.842 13.056.32 19.485-.53 6.515.325 13.031-.755 19.526-.986 5.93-3.367 7.903-9.565 6.989-5.016-.74-5.995-1.88-6-7-.003-4.173 0-8.346 0-13.115L120.5 107M84.5 75.5c-5.042 3.394-8.153 8.123-9.477 14.005-.636 2.828-3.33 4.107-4.544 6.484-.542 1.064-1.902 1.428-2.03 3.007-1.02 12.54-9.729 22.023-13.227 33.935 3.348 1.17 7.657 1.82 8.778 6.569"/>
    <path fill="none" stroke-linecap="round" stroke-linejoin="round" stroke-width="2" d="M86 116.5c-8.919 5.46-17.685 11.144-26 17.5M129 76c7.454 3.133 10.898 2.688 15.5-2-2.978-4.188-8.276-6.3-12.455-4.4-2.18.991-4.953 2.032-3.703 5.95.708 2.221-.61 5.013-.261 7.438 1.105 7.673-.866 13.527-8.581 16.512M200.5 190.5c5.547 2.671 11.492 2.94 17.5 3.046 2.159.038 4.408-.687 6.5.454M83 128c-6.991 4.748-15.198 7.9-20.055 15.464-.595.926-1.482 1.738-2.92 2.126-7.995 2.157-13.929 7.855-20.525 12.41M20 122c5.833 3.35 11.667 3.551 17.5 0"/>
    <path fill="none" stroke-linecap="round" stroke-linejoin="round" stroke-width="2" d="M39.5 147c3.71-2.766 7.242-5.662 12.522-4.608 2.37.473 3.988.906 3.978 3.608"/>
  </symbol>
</svg>
